<?xml version="1.0" encoding="utf-8"?>
<!-- Generator: Adobe Illustrator 19.0.0, SVG Export Plug-In . SVG Version: 6.00 Build 0)  -->
<svg version="1.1" id="Capa_1" xmlns="http://www.w3.org/2000/svg" xmlns:xlink="http://www.w3.org/1999/xlink" x="0px" y="0px"
	 viewBox="-180 271.7 250.3 250.3" style="enable-background:new -180 271.7 250.3 250.3;" xml:space="preserve">
<style type="text/css">
	.st0{fill:#FFFFFF;}
</style>
<g id="Search">
	<path class="st0" d="M64.2,486.3L9.8,431.9c-0.3-0.3-0.6-0.5-0.9-0.8c10.7-16.2,16.9-35.7,16.9-56.6c0-56.8-46.1-102.9-102.9-102.9
		S-180,317.8-180,374.6c0,56.8,46.1,102.9,102.9,102.9c20.9,0,40.3-6.2,56.6-16.9c0.3,0.3,0.5,0.6,0.8,0.9l54.4,54.4
		c8.2,8.2,21.4,8.2,29.6,0C72.4,507.7,72.4,494.5,64.2,486.3z M-77.1,441.8c-37.1,0-67.2-30.1-67.2-67.2c0-37.1,30.1-67.2,67.2-67.2
		c37.1,0,67.2,30.1,67.2,67.2S-40,441.8-77.1,441.8z"/>
</g>
</svg>
