<?xml version="1.0" encoding="utf-8"?>
<!-- Generator: Adobe Illustrator 19.0.0, SVG Export Plug-In . SVG Version: 6.00 Build 0)  -->
<svg version="1.1" id="Layer_1" xmlns="http://www.w3.org/2000/svg" xmlns:xlink="http://www.w3.org/1999/xlink" x="0px" y="0px"
	 viewBox="-188 367.1 265 58.9" style="enable-background:new -188 367.1 265 58.9;" xml:space="preserve">
<style type="text/css">
	.st0{fill:#FFFFFF;}
</style>
<path id="XMLID_30_" class="st0" d="M-68.9,372.6c-1.8,0.8-3.8,1.3-5.8,1.6c2.1-1.2,3.7-3.2,4.4-5.6c-2,1.2-4.1,2-6.4,2.5
	c-1.8-2-4.5-3.2-7.4-3.2c-5.6,0-10.1,4.5-10.1,10.1c0,0.8,0.1,1.6,0.3,2.3c-8.4-0.4-15.8-4.4-20.8-10.6c-0.9,1.5-1.4,3.2-1.4,5.1
	c0,3.5,1.8,6.6,4.5,8.4c-1.7-0.1-3.2-0.5-4.6-1.3v0.1c0,4.9,3.5,9,8.1,9.9c-0.8,0.2-1.7,0.4-2.7,0.4c-0.7,0-1.3-0.1-1.9-0.2
	c1.3,4,5,6.9,9.4,7c-3.5,2.7-7.8,4.3-12.6,4.3c-0.8,0-1.6,0-2.4-0.1c4.5,2.9,9.8,4.5,15.5,4.5c18.6,0,28.8-15.4,28.8-28.8
	c0-0.4,0-0.9,0-1.3C-72,376.4-70.3,374.6-68.9,372.6z"/>
<path id="XMLID_2_" class="st0" d="M-13.2,380.7h-6.6v-4.4c0-1.6,1.1-2,1.8-2c0.8,0,4.7,0,4.7,0v-7.1h-6.4c-7.1,0-8.7,5.3-8.7,8.7
	v4.8h-4.1v7.4h4.1c0,9.4,0,20.8,0,20.8h8.7c0,0,0-11.5,0-20.8h5.8L-13.2,380.7z"/>
<g id="XMLID_3_">
	<path id="XMLID_9_" class="st0" d="M36.3,386L36.3,386C36.3,385.9,36.3,385.9,36.3,386L36.3,386z"/>
	<path id="XMLID_4_" class="st0" d="M52.5,367.1H17c-1.7,0-3.1,1.3-3.1,3v35.8c0,1.7,1.4,3,3.1,3h35.4c1.7,0,3.1-1.3,3.1-3v-35.8
		C55.5,368.4,54.2,367.1,52.5,367.1z M26.6,402.1h-6.3v-18.9h6.3V402.1z M23.4,380.6L23.4,380.6c-2.1,0-3.5-1.5-3.5-3.3
		c0-1.9,1.4-3.3,3.6-3.3c2.1,0,3.5,1.4,3.5,3.3C27,379.2,25.6,380.6,23.4,380.6z M49.2,402.1h-6.3V392c0-2.5-0.9-4.3-3.2-4.3
		c-1.7,0-2.8,1.2-3.2,2.3c-0.2,0.4-0.2,1-0.2,1.5v10.6H30c0,0,0.1-17.1,0-18.9h6.3v2.7c0.8-1.3,2.3-3.1,5.7-3.1
		c4.1,0,7.2,2.7,7.2,8.5V402.1L49.2,402.1z"/>
</g>
<g id="XMLID_10_">
	<path id="XMLID_16_" class="st0" d="M-134.2,387.3L-134.2,387.3c0.1,0,0.2-0.1,0.2-0.1c0-0.1,0-0.2-0.1-0.2c-2.3-0.4-4-0.9-9.7-0.8
		c0.4-1.3,0.5-2.9,0.6-4.7c0-5-2.4-6.8-2.9-7.6c0.7-3.8-0.1-5.5-0.5-6.1c-1.4-0.5-4.7,1.2-6.5,2.5c-3-0.9-9.3-0.8-11.7,0.2
		c-4.4-3.1-6.7-2.7-6.7-2.7s-1.5,2.6-0.4,6.5c-1.4,1.8-2.5,3.1-2.5,6.6c0,1.9,0.2,3.7,0.7,5.2c-2.3,0-7.1,0.3-9.3,0.8
		c-0.1,0-0.1,0.1-0.1,0.2s0.1,0.1,0.2,0.1l0,0c2.3-0.6,7.2-0.9,9.4-0.8c0.1,0.3,0.3,0.6,0.4,0.9c-5.5,0.1-7,0.9-9.3,1.5
		c-0.2,0-0.3,0.1-0.5,0.1c-0.1,0-0.1,0.1-0.1,0.2s0.1,0.1,0.2,0.1l0,0c0.2,0,0.3-0.1,0.5-0.1c2.3-0.6,3.8-1.4,9.4-1.5
		c1.6,3,4.8,4.8,10.2,5.4c-0.8,0.6-1.7,1.7-1.8,3c-1,0.6-2.9,0.8-4.4,0.4c-2.1-0.7-2.9-4.8-6.1-4.2c-0.7,0.1-0.5,0.6,0,1
		c1,0.6,1.9,1.4,2.6,3.1c0.5,1.3,1.7,3.5,5.2,3.5c1.4,0,2.4-0.2,2.4-0.2s0,3.2,0,4.5c0,1.5-2,1.9-2,2.6c0,0.3,0.6,0.3,1.2,0.3
		c1,0,3.2-0.9,3.2-2.4c0-1.2,0-5.2,0-5.9c0-1.5,0.8-2,0.8-2s0.1,8.2-0.2,9.3c-0.4,1.3-1,1.1-1,1.7c0,0.9,2.6,0.2,3.4-1.7
		c0.7-1.5,0.4-9.6,0.4-9.6h0.7c0,0,0,3.7,0,5.4c0,1.8-0.1,4,0.9,5c0.7,0.7,2.9,1.9,2.9,0.8c0-0.6-1.2-1.2-1.2-2.9c0-1.9,0-7.4,0-8
		c1,0,0.8,2.6,0.8,2.6l0.1,4.9c0,0-0.2,1.8,1.9,2.5c0.8,0.3,2.4,0.3,2.4-0.1c0.1-0.4-1.9-1.1-2-2.5c0-0.8,0-1.3,0-5
		c0-3.6-0.5-5-2.2-6.1c5.3-0.5,8.5-1.8,10.1-5.3c1.8,0.1,5.6,0.2,10.1,1.6l0,0c0.1,0,0.1,0,0.2-0.1c0-0.1,0-0.2-0.1-0.2
		c-4.4-1.3-8.1-1.5-10-1.6c0.1-0.3,0.2-0.6,0.3-1C-138.2,386.4-136.5,386.8-134.2,387.3z M-174,392.8c-0.2,0-0.4-0.1-0.4-0.3
		c0-0.2,0.2-0.3,0.4-0.3s0.4,0.1,0.4,0.3C-173.6,392.7-173.8,392.8-174,392.8z M-173.2,393.2c0-0.1,0.2-0.3,0.4-0.3s0.4,0.1,0.4,0.3
		c0,0.2-0.2,0.3-0.4,0.3C-173,393.4-173.2,393.3-173.2,393.2z M-172.5,394c0-0.1,0.2-0.3,0.4-0.3c0.2,0,0.4,0.1,0.4,0.3
		c0,0.2-0.2,0.3-0.4,0.3C-172.3,394.3-172.5,394.2-172.5,394z M-171.5,395.3c-0.2,0-0.4-0.1-0.4-0.3c0-0.2,0.2-0.3,0.4-0.3
		s0.4,0.1,0.4,0.3C-171.1,395.2-171.3,395.3-171.5,395.3z M-170.7,396.2c-0.2,0-0.4-0.1-0.4-0.3c0-0.2,0.2-0.3,0.4-0.3
		s0.4,0.1,0.4,0.3C-170.3,396.1-170.5,396.2-170.7,396.2z M-169.8,397c-0.2,0-0.4-0.1-0.4-0.3c0-0.2,0.2-0.3,0.4-0.3
		s0.4,0.1,0.4,0.3C-169.4,396.9-169.6,397-169.8,397z M-168.4,397.5c-0.2,0-0.4-0.1-0.4-0.3c0-0.2,0.2-0.3,0.4-0.3
		c0.2,0,0.4,0.1,0.4,0.3C-168,397.4-168.2,397.5-168.4,397.5z M-167,397.5c-0.2,0-0.4-0.1-0.4-0.3c0-0.2,0.2-0.3,0.4-0.3
		s0.4,0.1,0.4,0.3C-166.6,397.4-166.8,397.5-167,397.5z M-165.6,397.3c-0.2,0-0.4-0.1-0.4-0.3c0-0.2,0.2-0.3,0.4-0.3
		c0.2,0,0.4,0.1,0.4,0.3C-165.2,397.2-165.4,397.3-165.6,397.3z M-154.9,391.9c-1.1,0-2.3,0.1-3.5,0.1c-1.2,0-2.4,0-3.4-0.1
		c-5.8-0.2-9-2.6-9-6.9c0-0.4,0.1-2,1.3-3.4s2.9-2.1,5.1-2.1c0.2,0,0.4,0,1,0.1c1.2,0.1,3.1,0.2,5.1,0.2c1.8,0,3.5-0.1,4.5-0.2
		c0.4,0,0.6,0,0.7,0c4.7,0,6.4,3,6.4,5.8C-146.7,388.1-148.1,391.6-154.9,391.9z"/>
	<path id="XMLID_15_" class="st0" d="M-175.2,395.5c0.9,0,0-1.4,0-2.1C-175.2,394.1-176.1,395.5-175.2,395.5z"/>
	<path id="XMLID_14_" class="st0" d="M-157.5,389.4c-0.1,0-0.2,0.1-0.2,0.2c0,0.4-0.4,0.8-1,0.8c-0.1,0-0.2,0-0.2,0
		c-0.2,0-0.4-0.1-0.5-0.2c0,0-0.1,0-0.1-0.1c-0.1-0.1-0.1-0.1-0.2-0.2c-0.1-0.1-0.1-0.2-0.1-0.3s-0.1-0.2-0.2-0.2
		c-0.1,0-0.2,0.1-0.2,0.2c0,0,0,0.1,0,0.2c0,0.1,0.1,0.2,0.1,0.3c0.1,0.1,0.2,0.2,0.3,0.3c0.1,0.1,0.2,0.2,0.3,0.2
		c0.2,0.1,0.3,0.1,0.5,0.2c0.1,0,0.1,0,0.2,0c0.4,0,0.7-0.1,0.9-0.3l0.1-0.1c0.1-0.1,0.1-0.1,0.2-0.2c0.1-0.2,0.2-0.3,0.2-0.5v-0.1
		C-157.3,389.5-157.4,389.4-157.5,389.4z"/>
	<path id="XMLID_13_" class="st0" d="M-159.2,388.5c0,0.1,0.1,0.1,0.2,0.2c0,0,0,0,0.1,0c0.1,0,0.1,0,0.2,0.1h0.1
		c0.1,0,0.2,0,0.3-0.1l0.1-0.1c0,0,0.1-0.1,0.1-0.2c0-0.1,0-0.1,0-0.2c0-0.3-0.3-0.6-0.6-0.6c-0.2,0-0.3,0.1-0.4,0.2l0,0l-0.1,0.1
		c0,0.1-0.1,0.1-0.1,0.2v0.1v0.1C-159.2,388.4-159.2,388.5-159.2,388.5z"/>
	<path id="XMLID_12_" class="st0" d="M-163.5,382.4c-0.1-0.1-0.2-0.3-0.4-0.4c-0.2-0.1-0.3-0.2-0.4-0.3c-0.1-0.1-0.3-0.1-0.5-0.1
		c-0.1,0-0.2,0-0.2,0c-1.3,0-2.4,1.6-2.4,3.6s1.1,3.4,2.4,3.4c0.1,0,0.2,0,0.2,0c0.2,0,0.3-0.1,0.5-0.1c0.2-0.1,0.3-0.1,0.4-0.2
		c0.1-0.1,0.3-0.2,0.4-0.3s0.2-0.3,0.3-0.4c0.3-0.6,0.6-1.3,0.6-2.2c0-0.9-0.2-1.7-0.6-2.3C-163.2,382.7-163.4,382.6-163.5,382.4z"
		/>
	<path id="XMLID_11_" class="st0" d="M-151.9,381.6c-1.3,0-2.4,1.6-2.4,3.6s1.1,3.4,2.4,3.4c1.3,0,2.4-1.4,2.4-3.4
		S-150.6,381.6-151.9,381.6z"/>
</g>
</svg>
