<?xml version="1.0" encoding="utf-8"?>
<!-- Generator: Adobe Illustrator 19.0.0, SVG Export Plug-In . SVG Version: 6.00 Build 0)  -->
<svg version="1.1" id="Layer_1" xmlns="http://www.w3.org/2000/svg" xmlns:xlink="http://www.w3.org/1999/xlink" x="0px" y="0px"
	 viewBox="0 0 233.5 58.9" style="enable-background:new 0 0 233.5 58.9;" xml:space="preserve">
<style type="text/css">
	.st0{fill:#FFFFFF;}
</style>
<path id="XMLID_30_" class="st0" d="M119.1,5.5c-1.8,0.8-3.8,1.3-5.8,1.6c2.1-1.2,3.7-3.2,4.4-5.6c-2,1.2-4.1,2-6.4,2.5
	c-1.8-2-4.5-3.2-7.4-3.2c-5.6,0-10.1,4.5-10.1,10.1c0,0.8,0.1,1.6,0.3,2.3c-8.4-0.4-15.8-4.4-20.8-10.6c-0.9,1.5-1.4,3.2-1.4,5.1
	c0,3.5,1.8,6.6,4.5,8.4c-1.7-0.1-3.2-0.5-4.6-1.3c0,0,0,0.1,0,0.1c0,4.9,3.5,9,8.1,9.9c-0.8,0.2-1.7,0.4-2.7,0.4
	c-0.7,0-1.3-0.1-1.9-0.2c1.3,4,5,6.9,9.4,7c-3.5,2.7-7.8,4.3-12.6,4.3c-0.8,0-1.6,0-2.4-0.1c4.5,2.9,9.8,4.5,15.5,4.5
	c18.6,0,28.8-15.4,28.8-28.8c0-0.4,0-0.9,0-1.3C116,9.3,117.7,7.5,119.1,5.5z"/>
<path id="XMLID_2_" class="st0" d="M164.8,13.6h-6.6V9.2c0-1.6,1.1-2,1.8-2c0.8,0,4.7,0,4.7,0V0.1l-6.4,0c-7.1,0-8.7,5.3-8.7,8.7
	v4.8h-4.1v7.4h4.1c0,9.4,0,20.8,0,20.8h8.7c0,0,0-11.5,0-20.8h5.8L164.8,13.6z"/>
<g id="XMLID_3_">
	<path id="XMLID_9_" class="st0" d="M214.3,18.9L214.3,18.9C214.3,18.8,214.3,18.8,214.3,18.9L214.3,18.9z"/>
	<path id="XMLID_4_" class="st0" d="M230.5,0H195c-1.7,0-3.1,1.3-3.1,3v35.8c0,1.7,1.4,3,3.1,3h35.4c1.7,0,3.1-1.3,3.1-3V3
		C233.5,1.3,232.2,0,230.5,0z M204.6,35h-6.3V16.1h6.3V35z M201.4,13.5L201.4,13.5c-2.1,0-3.5-1.5-3.5-3.3c0-1.9,1.4-3.3,3.6-3.3
		c2.1,0,3.5,1.4,3.5,3.3C205,12.1,203.6,13.5,201.4,13.5z M227.2,35h-6.3V24.9c0-2.5-0.9-4.3-3.2-4.3c-1.7,0-2.8,1.2-3.2,2.3
		c-0.2,0.4-0.2,1-0.2,1.5V35H208c0,0,0.1-17.1,0-18.9h6.3v2.7c0.8-1.3,2.3-3.1,5.7-3.1c4.1,0,7.2,2.7,7.2,8.5L227.2,35L227.2,35z"/>
</g>
<g id="XMLID_10_">
	<path id="XMLID_16_" class="st0" d="M53.8,20.2C53.8,20.2,53.8,20.2,53.8,20.2c0.1,0,0.2-0.1,0.2-0.1c0-0.1,0-0.2-0.1-0.2
		c-2.3-0.4-4-0.9-9.7-0.8c0.4-1.3,0.5-2.9,0.6-4.7c0-5-2.4-6.8-2.9-7.6c0.7-3.8-0.1-5.5-0.5-6.1c-1.4-0.5-4.7,1.2-6.5,2.5
		c-3-0.9-9.3-0.8-11.7,0.2c-4.4-3.1-6.7-2.7-6.7-2.7S15,3.3,16.1,7.2c-1.4,1.8-2.5,3.1-2.5,6.6c0,1.9,0.2,3.7,0.7,5.2
		C12,19,7.2,19.3,5,19.8c-0.1,0-0.1,0.1-0.1,0.2c0,0.1,0.1,0.1,0.2,0.1c0,0,0,0,0,0c2.3-0.6,7.2-0.9,9.4-0.8
		c0.1,0.3,0.3,0.6,0.4,0.9c-5.5,0.1-7,0.9-9.3,1.5c-0.2,0-0.3,0.1-0.5,0.1c-0.1,0-0.1,0.1-0.1,0.2c0,0.1,0.1,0.1,0.2,0.1
		c0,0,0,0,0,0c0.2,0,0.3-0.1,0.5-0.1c2.3-0.6,3.8-1.4,9.4-1.5c1.6,3,4.8,4.8,10.2,5.4c-0.8,0.6-1.7,1.7-1.8,3
		c-1,0.6-2.9,0.8-4.4,0.4c-2.1-0.7-2.9-4.8-6.1-4.2c-0.7,0.1-0.5,0.6,0,1c1,0.6,1.9,1.4,2.6,3.1c0.5,1.3,1.7,3.5,5.2,3.5
		c1.4,0,2.4-0.2,2.4-0.2s0,3.2,0,4.5c0,1.5-2,1.9-2,2.6c0,0.3,0.6,0.3,1.2,0.3c1,0,3.2-0.9,3.2-2.4c0-1.2,0-5.2,0-5.9
		c0-1.5,0.8-2,0.8-2s0.1,8.2-0.2,9.3c-0.4,1.3-1,1.1-1,1.7c0,0.9,2.6,0.2,3.4-1.7c0.7-1.5,0.4-9.6,0.4-9.6l0.7,0c0,0,0,3.7,0,5.4
		c0,1.8-0.1,4,0.9,5c0.7,0.7,2.9,1.9,2.9,0.8c0-0.6-1.2-1.2-1.2-2.9c0-1.9,0-7.4,0-8c1,0,0.8,2.6,0.8,2.6l0.1,4.9
		c0,0-0.2,1.8,1.9,2.5c0.8,0.3,2.4,0.3,2.4-0.1c0.1-0.4-1.9-1.1-2-2.5c0-0.8,0-1.3,0-5c0-3.6-0.5-5-2.2-6.1
		c5.3-0.5,8.5-1.8,10.1-5.3c1.8,0.1,5.6,0.2,10.1,1.6c0,0,0,0,0,0c0.1,0,0.1,0,0.2-0.1c0-0.1,0-0.2-0.1-0.2c-4.4-1.3-8.1-1.5-10-1.6
		c0.1-0.3,0.2-0.6,0.3-1C49.8,19.3,51.5,19.7,53.8,20.2z M14,25.7c-0.2,0-0.4-0.1-0.4-0.3s0.2-0.3,0.4-0.3c0.2,0,0.4,0.1,0.4,0.3
		C14.4,25.6,14.2,25.7,14,25.7z M14.8,26.1c0-0.1,0.2-0.3,0.4-0.3c0.2,0,0.4,0.1,0.4,0.3s-0.2,0.3-0.4,0.3
		C15,26.3,14.8,26.2,14.8,26.1z M15.5,26.9c0-0.1,0.2-0.3,0.4-0.3s0.4,0.1,0.4,0.3s-0.2,0.3-0.4,0.3S15.5,27.1,15.5,26.9z
		 M16.5,28.2c-0.2,0-0.4-0.1-0.4-0.3s0.2-0.3,0.4-0.3c0.2,0,0.4,0.1,0.4,0.3S16.7,28.2,16.5,28.2z M17.3,29.1
		c-0.2,0-0.4-0.1-0.4-0.3s0.2-0.3,0.4-0.3c0.2,0,0.4,0.1,0.4,0.3S17.5,29.1,17.3,29.1z M18.2,29.9c-0.2,0-0.4-0.1-0.4-0.3
		s0.2-0.3,0.4-0.3c0.2,0,0.4,0.1,0.4,0.3C18.6,29.8,18.4,29.9,18.2,29.9z M19.6,30.4c-0.2,0-0.4-0.1-0.4-0.3s0.2-0.3,0.4-0.3
		c0.2,0,0.4,0.1,0.4,0.3C20,30.3,19.8,30.4,19.6,30.4z M21,30.4c-0.2,0-0.4-0.1-0.4-0.3s0.2-0.3,0.4-0.3c0.2,0,0.4,0.1,0.4,0.3
		C21.4,30.3,21.2,30.4,21,30.4z M22.4,30.2c-0.2,0-0.4-0.1-0.4-0.3s0.2-0.3,0.4-0.3c0.2,0,0.4,0.1,0.4,0.3S22.6,30.2,22.4,30.2z
		 M33.1,24.8c-1.1,0-2.3,0.1-3.5,0.1c-1.2,0-2.4,0-3.4-0.1c-5.8-0.2-9-2.6-9-6.9c0-0.4,0.1-2,1.3-3.4c1.2-1.4,2.9-2.1,5.1-2.1
		c0.2,0,0.4,0,1,0.1c1.2,0.1,3.1,0.2,5.1,0.2c1.8,0,3.5-0.1,4.5-0.2c0.4,0,0.6,0,0.7,0c4.7,0,6.4,3,6.4,5.8
		C41.3,21,39.9,24.5,33.1,24.8z"/>
	<path id="XMLID_15_" class="st0" d="M12.8,28.4c0.9,0,0-1.4,0-2.1C12.8,27,11.9,28.4,12.8,28.4z"/>
	<path id="XMLID_14_" class="st0" d="M30.5,22.3c-0.1,0-0.2,0.1-0.2,0.2c0,0.4-0.4,0.8-1,0.8c-0.1,0-0.2,0-0.2,0
		c-0.2,0-0.4-0.1-0.5-0.2c0,0-0.1,0-0.1-0.1c-0.1-0.1-0.1-0.1-0.2-0.2c-0.1-0.1-0.1-0.2-0.1-0.3c0-0.1-0.1-0.2-0.2-0.2
		c-0.1,0-0.2,0.1-0.2,0.2c0,0,0,0.1,0,0.2c0,0.1,0.1,0.2,0.1,0.3c0.1,0.1,0.2,0.2,0.3,0.3c0.1,0.1,0.2,0.2,0.3,0.2
		c0.2,0.1,0.3,0.1,0.5,0.2c0.1,0,0.1,0,0.2,0c0.4,0,0.7-0.1,0.9-0.3c0,0,0.1-0.1,0.1-0.1c0.1-0.1,0.1-0.1,0.2-0.2
		c0.1-0.2,0.2-0.3,0.2-0.5c0,0,0-0.1,0-0.1C30.7,22.4,30.6,22.3,30.5,22.3z"/>
	<path id="XMLID_13_" class="st0" d="M28.8,21.4c0,0.1,0.1,0.1,0.2,0.2c0,0,0,0,0.1,0c0.1,0,0.1,0,0.2,0.1c0,0,0.1,0,0.1,0
		c0.1,0,0.2,0,0.3-0.1c0,0,0.1-0.1,0.1-0.1c0,0,0.1-0.1,0.1-0.2c0-0.1,0-0.1,0-0.2c0-0.3-0.3-0.6-0.6-0.6c-0.2,0-0.3,0.1-0.4,0.2
		c0,0,0,0,0,0c0,0-0.1,0.1-0.1,0.1c0,0.1-0.1,0.1-0.1,0.2c0,0,0,0.1,0,0.1s0,0.1,0,0.1C28.8,21.3,28.8,21.4,28.8,21.4z"/>
	<path id="XMLID_12_" class="st0" d="M24.5,15.3c-0.1-0.1-0.2-0.3-0.4-0.4s-0.3-0.2-0.4-0.3s-0.3-0.1-0.5-0.1c-0.1,0-0.2,0-0.2,0
		c-1.3,0-2.4,1.6-2.4,3.6s1.1,3.4,2.4,3.4c0.1,0,0.2,0,0.2,0c0.2,0,0.3-0.1,0.5-0.1c0.2-0.1,0.3-0.1,0.4-0.2
		c0.1-0.1,0.3-0.2,0.4-0.3c0.1-0.1,0.2-0.3,0.3-0.4c0.3-0.6,0.6-1.3,0.6-2.2s-0.2-1.7-0.6-2.3C24.8,15.6,24.6,15.5,24.5,15.3z"/>
	<path id="XMLID_11_" class="st0" d="M36.1,14.5c-1.3,0-2.4,1.6-2.4,3.6s1.1,3.4,2.4,3.4s2.4-1.4,2.4-3.4S37.4,14.5,36.1,14.5z"/>
</g>
</svg>
